<svg height="600" version="1.1" width="800" xmlns="http://www.w3.org/2000/svg" preserveAspectRatio="xMidYMid meet" viewBox="0 0 600 442" xmlns:xlink="http://www.w3.org/1999/xlink"><desc>Created with Snap</desc><defs/><g id="root" contentwidth="266" contentheight="226.7">
          <rect class="background" height="2000%" width="2000%" y="-1000%" x="-1000%" style="" fill="#ffffff"/>
          <g class="content" id="content" transform="matrix(1,0,0,1,-1,10.65)">
            <g class="icon">
            <svg height="220" version="1.1" width="220" xmlns="http://www.w3.org/2000/svg" x="214" y="97" preserveAspectRatio="none" transform="matrix(1,0,0,1,0,0)"><desc>Created with Snap</desc><defs/><svg xmlns="http://www.w3.org/2000/svg" viewBox="214 97 220 220"><path d="M355.829 145.08c33.9 0 61.444 27.206 61.992 60.974l-.001.025h.009v61.927l-.008-.952c-.486-29.978-22.25-54.784-50.847-59.975H291.83c-34.242 0-62-27.758-62-62h126Z" id="prefix-5f5-形状结合备份" fill="#f39800" transform="scale(-1 1) rotate(-45 0 988.335)" style="" stroke="#ffffff" paint-order="stroke"/><desc>Created with Snap</desc><defs/></svg></svg><svg height="220" version="1.1" width="220" xmlns="http://www.w3.org/2000/svg" x="168" y="97" preserveAspectRatio="none" transform="matrix(1,0,0,1,0,0)"><desc>Created with Snap</desc><defs/><svg xmlns="http://www.w3.org/2000/svg" viewBox="168 97 220 220"><path d="M310.08 145.08c33.899 0 61.444 27.206 61.991 60.974v.025h.009v61.927l-.009-.952c-.486-29.978-22.249-54.784-50.846-59.975H246.08c-34.242 0-62-27.758-62-62h126Z" id="prefix-w1A-形状结合" fill="#333333" transform="rotate(-45 278.08 206.543)" style="" stroke="#ffffff" paint-order="stroke"/><desc>Created with Snap</desc><defs/></svg></svg><svg height="179" version="1.1" width="179" xmlns="http://www.w3.org/2000/svg" x="253" y="140" preserveAspectRatio="none" transform="matrix(1,0,0,1,0,0)"><desc>Created with Snap</desc><defs/><svg xmlns="http://www.w3.org/2000/svg" viewBox="253 140 179 179"><path d="M344.926 167.207c33.9 0 61.445 27.206 61.992 60.975l.008 1.025v61.926l-.008-.951c-.542-33.431-27.544-60.43-60.977-60.967l-.902-.008h-5.113c-34.241 0-62-27.758-62-62h67Z" id="prefix-wiG-形状结合" fill="#50bcb6" transform="rotate(-45 342.426 229.17)" style="" stroke="#ffffff" paint-order="stroke"/><desc>Created with Snap</desc><defs/></svg></svg></g>
            <g id="icon_name_and_slogan_gap">
            </g>
            <g class="name_and_slogan" id="name_and_slogan_id">
              <g class="name"><g id="nameDefaultGroup"><path d="M221.4 289 L221.4 322.8 L214 322.8 L214 284.6 L224.6 284.6 Q222.9 281.6 221.1 278.4 Q219.2 275.2 217.4 272.5 L217.4 272.5 Q221.8 273.7 225.5 275.5 Q229.1 277.3 231 279.4 L231 279.4 L226.4 284.6 L234 284.6 L234 270.7 L241.8 270.7 L241.8 284.6 L245.4 284.6 Q248.5 278.2 250.4 272.3 L250.4 272.3 L258.2 275.6 Q256.4 278.3 253.9 280.6 Q251.5 282.8 248.4 284.6 L248.4 284.6 L261.8 284.6 L261.8 313.4 Q261.8 315.2 261.2 316.9 Q260.7 318.5 259.5 319.8 Q258.3 321.1 256.4 321.8 Q254.4 322.6 251.4 322.6 L251.4 322.6 L249.2 322.6 Q250.2 321.8 251.1 320.7 Q252 319.6 252.7 318.3 Q253.4 317.1 253.8 315.8 Q254.2 314.5 254.2 313.4 L254.2 313.4 L254.2 289 L221.4 289 M226.5 311.9 L226.5 294.8 L249.3 294.8 L249.3 306.8 Q249.3 311.9 243.9 311.9 L243.9 311.9 L226.5 311.9 M233.7 308.1 L242.2 308.1 L242.2 298.6 L233.7 298.6 L233.7 308.1 M309 309.5 Q309 313.5 305.8 313.5 L305.8 313.5 L286.5 313.5 L286.5 323.6 L279.1 323.6 L279.1 295.3 L316.7 295.3 L316.7 316.4 Q316.7 317.9 316.1 319.2 Q315.6 320.5 314.5 321.5 Q313.3 322.5 311.4 323.1 Q309.6 323.7 306.9 323.7 L306.9 323.7 L304.9 323.7 Q305.8 323.1 306.6 322.2 Q307.4 321.4 308 320.3 Q308.6 319.3 308.9 318.3 Q309.3 317.3 309.3 316.4 L309.3 316.4 L309.3 298.9 L286.5 298.9 L286.5 302.2 L309 302.2 Q309 306.1 305.8 306.1 L305.8 306.1 L286.5 306.1 L286.5 309.5 L309 309.5 M318.6 281 Q318.6 285 315.4 285 L315.4 285 L301.7 285 L301.7 288.4 L323.9 288.4 Q323.9 292.4 320.7 292.4 L320.7 292.4 L272.1 292.4 L272.1 288.4 L294.2 288.4 L294.2 285 L276.6 285 L276.6 281 L294.2 281 L294.2 277.6 L274.2 277.6 L274.2 273.7 L294.2 273.7 L294.2 270.6 L301.7 270.6 L301.7 273.7 L321.9 273.7 Q321.9 277.6 318.8 277.6 L318.8 277.6 L301.7 277.6 L301.7 281 L318.6 281 M359 316.9 L367.2 316.9 Q368.1 314.9 368.8 312.8 Q369.5 310.7 370 308.6 L370 308.6 L350 308.6 L350 294.9 L377.7 294.9 L377.7 304 Q377.7 305.2 377.3 306 Q376.8 306.9 376.2 307.5 Q375.5 308 374.7 308.3 Q373.9 308.6 373.1 308.6 L373.1 308.6 L370.2 308.6 L376.7 311.8 Q374.4 315 370.8 316.9 L370.8 316.9 L384.3 316.9 Q384.3 318.8 383.5 319.9 Q382.7 321 381 321 L381 321 L344.3 321 L344.3 316.9 L355.8 316.9 Q354.8 314.8 353.9 312.9 Q353 311.1 351.8 309 L351.8 309 Q355.1 309.4 357.6 310.4 Q360.1 311.5 362 313.9 L362 313.9 L359 316.9 M380 295.9 Q375.5 293.9 372.2 289 L372.2 289 Q371.4 290.3 369.6 290.3 L369.6 290.3 L355.8 290.3 L355.8 289.7 Q353.6 292 350.6 293.8 Q347.6 295.7 343.8 297.2 L343.8 297.2 Q346.4 294.5 348.3 292 Q350.3 289.4 351.9 286.8 Q353.4 284.2 354.5 281.6 Q355.6 279 356.4 276.2 L356.4 276.2 L346.4 276.2 L346.4 272.2 L360.7 272.2 Q362.6 272.2 363.4 273.2 Q364.2 274.3 363.6 276.3 L363.6 276.3 Q362.7 279 361.6 281.5 Q360.4 283.9 358.8 286.1 L358.8 286.1 L370.4 286.1 Q366.9 279.7 366.2 270.5 L366.2 270.5 L367.6 270.4 Q368.3 272.5 369.1 274.3 Q370 276.1 371 277.7 L371 277.7 Q372.1 276 373 274.1 Q373.9 272.3 374.7 270.5 L374.7 270.5 L380.3 274.2 Q378.6 275.9 376.5 277 Q374.5 278.1 371.7 278.8 L371.7 278.8 Q373.8 281.7 376 283.7 L376 283.7 Q377 282 377.9 280.2 Q378.8 278.5 379.5 276.8 L379.5 276.8 L385.1 280.6 Q383.6 282.1 381.7 283.1 Q379.8 284.2 377.3 284.8 L377.3 284.8 Q381.1 288 385 289.8 L385 289.8 L380 295.9 M343.7 290.5 Q344 300 342.6 307.9 Q341.1 315.8 337.8 322.9 L337.8 322.9 L331.4 318.1 Q333.3 314.8 335.2 311.2 Q337.1 307.5 338.7 303.8 Q340.3 300.2 341.6 296.7 Q342.8 293.3 343.5 290.3 L343.5 290.3 L343.7 290.5 M356.3 305 L371.4 305 L371.4 298.6 L356.3 298.6 L356.3 305 M333.9 271 Q335.4 271 337 271.4 Q338.6 271.9 340.2 272.6 Q341.8 273.4 343.2 274.4 Q344.6 275.3 345.7 276.6 L345.7 276.6 L339.9 282.7 Q338.8 279.6 337.2 276.5 Q335.6 273.5 333.9 271 L333.9 271 M330.2 284.9 Q331.6 285 333.2 285.4 Q334.8 285.8 336.4 286.6 Q338 287.3 339.4 288.3 Q340.8 289.3 341.9 290.6 L341.9 290.6 L336.1 296.6 Q335 293.6 333.4 290.5 Q331.8 287.4 330.2 284.9 L330.2 284.9 M349.5 287.3 Q348.9 286 348.2 284.9 Q347.6 283.8 347 282.8 Q346.3 281.9 345.5 281 Q344.7 280 343.8 278.9 L343.8 278.9 Q347 279.1 349.2 279.7 Q351.4 280.3 353.3 282.1 L353.3 282.1 L349.5 287.3 Z" style="" fill="#333333" transform="matrix(1,0,0,1,0,0)"/></g></g>
              <g class="slogan"><g id="sloganDefaultGroup"/></g>
            </g>
            <g class="border">
            </g>
          </g>
          
          <defs id="defs">
            <mask xmlns="http://www.w3.org/2000/svg" id="mask">
                <rect id="showAll" fill="white" x="168" y="97" width="266" height="222"/>
                <rect id="hideNameBg" fill="black" x="0" y="0" width="0" height="0" stroke-width="2" stroke="black"/>
                <rect id="hideSloganBg" fill="black" x="0" y="0" width="0" height="0" stroke-width="2" stroke="black"/>
            </mask>
          </defs>
          
        </g>
        </svg>